<svg xmlns="http://www.w3.org/2000/svg" xmlns:xlink="http://www.w3.org/1999/xlink" width="381" height="111" viewBox="0 0 381 111">
    <defs>
        <linearGradient id="a" x1="9.083%" x2="97.104%" y1="49.75%" y2="49.75%">
            <stop offset="0%" stop-color="#D1D3D3"/>
            <stop offset="100%" stop-color="#6A7B7B"/>
        </linearGradient>
        <path id="b" d="M380.14 0H0v32h380.14z"/>
    </defs>
    <g fill="none" fill-rule="evenodd">
        <path fill="url(#a)" d="M217.877 0c-14.327 0-22.528 2.944-26.655 10.847l-13.577-8.59L133 30.501l44.645 28.243 13.768-8.71C195.674 57.877 203.968 61 217.877 61 240.68 61 248 53.59 248 30.502 248 7.411 240.68 0 217.877 0zm4.411 30.502L194.151 12.7c3.51-6.887 10.64-9.171 23.726-9.171 20.911 0 26.638 5.797 26.638 26.973 0 21.172-5.727 26.97-26.638 26.97-20.415 0-26.64-6.303-26.64-26.97 0-3.49.16-6.554.514-9.25l-3.19-2.024c-.556 3.255-.81 6.994-.81 11.274 0 6.635.693 12 2.228 16.28l-12.334 7.801-38.067-24.081 38.067-24.084 38.066 24.084-18.418 11.653c.37 1.212.807 2.322 1.318 3.325l23.677-14.978z"/>
        <g transform="translate(0 79)">
            <mask id="c" fill="#fff">
                <use xlink:href="#b"/>
            </mask>
            <path fill="url(#a)" d="M207.166 31.222h19.801v-1.674H209.08l.035-13.847h15.554v-1.675h-15.554l-.035-11.634h17.887V.717h-19.8v30.505zm-31.21-15.753h7.897v12.347c-2.035 1.591-4.666 2.416-8.135 2.416-8.493 0-14.176-5.834-14.176-14.497 0-8.132 5.622-14.026 13.458-14.026 3.254 0 6.16 1.003 8.468 2.725l1.12-1.358C181.96 1.166 178.663.06 175 .06c-8.912 0-15.372 6.6-15.372 15.675 0 9.665 6.52 16.264 16.09 16.264 4.247 0 7.537-1.06 10.05-3.358V13.82h-9.812v1.65zm188.978-7.777c0-3.523 2.817-5.989 7.162-5.989 1.585 0 3.228.412 5.284 1.117l.528-1.645c-2.23-.822-4.052-1.115-5.87-1.115-5.403 0-8.983 3.053-8.983 7.691 0 9.57 15.206 7.281 15.206 15.793 0 3.934-3.288 6.752-8.455 6.752-1.937 0-4.228-.41-6.224-1.174l-.704 1.527a20.152 20.152 0 0 0 7.046 1.291c6.164 0 10.215-3.406 10.215-8.396 0-9.746-15.205-7.633-15.205-15.852zm-67.717 23.53h1.914V.717h-1.914v30.505zm45.506-10.467c0 5.981-3.41 9.57-9.032 9.57-5.623 0-9.032-3.589-9.032-9.57V.658h-1.914v20.097c0 6.938 4.188 11.244 10.946 11.244 6.76 0 10.946-4.306 10.946-11.244V.658h-1.914v20.097zM271.135.717l.001 28.831h-1.375L252.732.718h-4.366v30.504h1.914V2.392h1.375l17.03 28.83h4.365V.717h-1.915zM15.971 30.265c-8.076 0-14.057-6.22-14.057-14.355 0-8.075 5.981-14.236 14.057-14.236 2.833 0 5.403.774 7.545 2.126l1.112-1.369C22.17.883 19.214 0 15.971 0 6.88 0 .001 6.82.001 15.91c0 9.151 6.878 16.03 15.97 16.03 3.477 0 6.612-1 9.16-2.749l-1.125-1.382c-2.235 1.56-4.983 2.456-8.035 2.456zm40.995 0c-8.075 0-14.057-6.22-14.057-14.355 0-8.075 5.982-14.236 14.057-14.236 8.014 0 13.936 6.161 13.936 14.236 0 8.194-5.922 14.355-13.936 14.355zm0-30.266c-9.092 0-15.97 6.82-15.97 15.911 0 9.151 6.878 16.03 15.97 16.03 9.091 0 15.85-6.819 15.85-16.03C72.816 6.82 65.997 0 56.966 0zM140.3.717v28.831h-1.375L121.896.718h-4.367v30.504h1.914V2.392h1.375l17.03 28.83h4.365V.717H140.3zM93.11 31.222h1.913V.717h-1.914v30.505z" mask="url(#c)"/>
        </g>
    </g>
</svg>
