<svg xmlns="http://www.w3.org/2000/svg" width="92" height="81" viewBox="0 0 92 81">
    <defs>
        <linearGradient id="a" x1="17.983%" x2="135.368%" y1="50%" y2="50%">
            <stop offset="0%" stop-color="#C79375"/>
            <stop offset="100%" stop-color="#875E48"/>
        </linearGradient>
    </defs>
    <g fill="none" fill-rule="evenodd" transform="translate(-6)">
        <path fill="url(#a)" d="M10.237 68.051l8.017 12.83H2.221z" transform="scale(1 -1) rotate(-30 -268.333 0)"/>
        <g stroke="#666D6F" stroke-width="3.84">
            <path d="M12.025 33.682c0-24.018 7.254-31.276 31.265-31.276 24.009 0 31.264 7.258 31.264 31.276 0 24.015-7.255 31.27-31.264 31.27-23.047 0-31.265-7.255-31.265-31.27z"/>
            <path d="M74.552 33.68c11.083 0 14.431 4.744 14.431 20.447s-3.348 20.448-14.43 20.448c-11.081 0-14.429-4.745-14.429-20.448 0-15.072 3.348-20.448 14.428-20.448zM38.48 22.052a7.617 7.617 0 1 1-15.232 0 7.617 7.617 0 0 1 7.615-7.618 7.617 7.617 0 0 1 7.616 7.618z"/>
            <path stroke-linecap="round" d="M72.95 16.84c-14.72-.051-20.904 4.432-27.656 20.047C38.541 52.5 32.357 56.985 17.636 56.934"/>
        </g>
        <ellipse cx="84.574" cy="7.618" fill="url(#a)" rx="7.616" ry="7.618"/>
        <g stroke="#BF8C70" stroke-linecap="round" stroke-width="2.4">
            <path d="M96.847 50.318c-2.963-2.09-4.829-2.083-8.34.033-3.513 2.115-5.379 2.123-8.342.032M96.847 56.733c-2.963-2.09-4.829-2.083-8.34.033-3.513 2.115-5.379 2.123-8.342.033"/>
        </g>
    </g>
</svg>
